# xmcd
# 
# Track frame offsets:
#     150
#     8547
#     47243
#     62571
#     116187
#     203582
#     226176
# 
# Disc length: 3715
# 
# Revision: 0
# Processed by: cddbd v1.5.2PL0 Copyright (c) Steve Scherf et al.
# Submitted via: BonkEnc v1.0
# 
DISCID=510e8107
DTITLE=Fredmund Malik - wirksam Führen
DYEAR=2007
DGENRE=
TTITLE0=Einleitung
TTITLE1=Die Sitzung
TTITLE2=Der Bericht
TTITLE3=Die Aufgabengestaltung
TTITLE4=Persönliche Arbeitsmethodik
TTITLE5=Die Leistungsbeurteilung
TTITLE6=Die systematische Entschlackung und Erneuerung
EXTD=
EXTT0=
EXTT1=
EXTT2=
EXTT3=
EXTT4=
EXTT5=
EXTT6=
PLAYORDER=
